<?xml version="1.0" encoding="utf-8"?>
<!-- Generator: Adobe Illustrator 23.0.4, SVG Export Plug-In . SVG Version: 6.00 Build 0)  -->
<svg version="1.1" id="Layer_1" xmlns="http://www.w3.org/2000/svg" xmlns:xlink="http://www.w3.org/1999/xlink" x="0px" y="0px"
	 viewBox="0 0 153.3 55.05" style="enable-background:new 0 0 153.3 55.05;" xml:space="preserve">
<style type="text/css">
	.st0{fill:#FFFFFF;}
	.st1{fill:#F7941D;}
</style>
<g>
	<path id="XMLID_120_" class="st0" d="M24.46,15.15h4.32v18.21h-4.25l-0.22-2.66c-1.03,2.14-3.88,3.18-5.91,3.21
		c-5.39,0.04-9.38-3.29-9.38-9.68c0-6.28,4.17-9.57,9.49-9.53c2.44,0,4.77,1.15,5.8,2.96L24.46,15.15z M13.53,24.23
		c0,3.47,2.4,5.54,5.39,5.54c7.09,0,7.09-11.05,0-11.05C15.93,18.73,13.53,20.76,13.53,24.23z"/>
	<path id="XMLID_117_" class="st0" d="M32.59,40.97V15.15h4.21l0.3,2.51c1.4-2.03,3.84-2.92,5.91-2.92c5.61,0,9.35,4.17,9.35,9.53
		c0,5.32-3.36,9.53-9.2,9.53c-1.92,0-4.77-0.59-6.06-2.59v9.75H32.59z M47.85,24.27c0-2.84-1.92-5.17-5.17-5.17
		c-3.25,0-5.17,2.33-5.17,5.17s2.11,5.17,5.17,5.17C45.74,29.44,47.85,27.11,47.85,24.27z"/>
	<path id="XMLID_115_" class="st0" d="M60.15,7.54v25.82h-4.47V7.54H60.15z"/>
	<rect id="XMLID_114_" x="64.1" y="15.07" class="st0" width="4.51" height="18.29"/>
	<path id="XMLID_113_" class="st1" d="M69.01,10.01c0-3.51-5.32-3.51-5.32,0S69.01,13.52,69.01,10.01z"/>
	<path id="XMLID_111_" class="st1" d="M106.26,18.73c-2.99,0-5.39,2.03-5.39,5.5s2.4,5.54,5.39,5.54
		C113.35,29.77,113.35,18.73,106.26,18.73z"/>
	<path id="XMLID_100_" class="st1" d="M135.52,10.63H77.5c-3.25,0-5.88,2.63-5.88,5.88v19.11c0,2.11,1.12,3.96,2.79,5
		c-3.93,3.38-8.05,5.47-9.89,6.31c-0.21,0.1-0.14,0.42,0.1,0.41c16.44-0.37,27.72-5.84,27.72-5.84h43.19c3.25,0,5.88-2.63,5.88-5.88
		V16.51C141.41,13.26,138.77,10.63,135.52,10.63z M86.64,33.99c-2.88,0-5.76-0.48-8.42-3.25l2.22-3.21
		c1.29,1.44,4.25,2.51,6.28,2.55c1.7,0.04,3.29-0.85,3.29-2.18c0-1.26-1.03-1.77-3.62-1.92c-3.44-0.26-7.54-1.51-7.54-5.65
		c0-4.21,4.36-5.69,7.68-5.69c2.84,0,4.99,0.55,7.09,2.4l-2.51,2.96c-1.29-1.22-2.77-1.63-4.51-1.63c-2.14,0-3.32,0.67-3.32,1.81
		c0,1.18,1.07,1.85,3.4,1.99c3.44,0.22,7.79,1,7.79,5.84C94.47,31.22,91.85,33.99,86.64,33.99z M116.12,33.36h-4.25l-0.22-2.66
		c-1.03,2.14-3.88,3.18-5.91,3.21c-5.39,0.04-9.38-3.29-9.38-9.68c0-6.28,4.17-9.57,9.49-9.53c2.44,0,4.76,1.15,5.8,2.96l0.15-2.51
		h4.32V33.36z M127.16,39.17h-4.95l2.63-6.11l-7.28-17.92h5.25l2.77,7.87l1.74,5.13l1.88-5.02l3.32-7.98h4.99L127.16,39.17z"/>
</g>
</svg>
